<?xml version="1.0" encoding="utf-8"?>
<!-- Generator: Adobe Illustrator 27.5.0, SVG Export Plug-In . SVG Version: 6.00 Build 0)  -->
<svg version="1.1" xmlns="http://www.w3.org/2000/svg" xmlns:xlink="http://www.w3.org/1999/xlink" x="0px" y="0px"
	 viewBox="0 0 500 500" style="enable-background:new 0 0 500 500;" xml:space="preserve">
<g id="BACKGROUND">
	<rect style="fill:#FFFFFF;" width="500" height="500"/>
</g>
<g id="OBJECTS">
	<g>
		<path style="fill:#EEFFF8;" d="M402.554,104.149c1.456-82.412-71.421-71.646-110.784,27.752
			c-39.363,99.398-173.363-43.363-243.267,50.62s126.432,122.08,107.709,180.332c-18.723,58.252,68.687,180.736,219.156,22.392
			S400.878,199.012,402.554,104.149z"/>
		<path style="fill:#EEFFF8;" d="M250,110.833c0,33.733-52.174,30.352-76.347,30.352s-43.769-27.346-43.769-61.078
			s19.596-61.078,43.769-61.078S250,77.101,250,110.833z"/>
		<ellipse style="fill:#EEFFF8;" cx="447.274" cy="75.681" rx="28.879" ry="48.194"/>
		
			<ellipse transform="matrix(0.7134 -0.7008 0.7008 0.7134 -248.1848 176.3941)" style="fill:#EEFFF8;" cx="91.545" cy="391.597" rx="53.12" ry="48.194"/>
	</g>
	<g>
		<g>
			<path style="fill:#202020;" d="M139.078,315.254l-5.002,1.175c-5.944,1.396-7.897-4.173-9.293-10.117L83.022,147.416
				l26.527-6.231l33.565,161.603C144.51,308.732,145.022,313.857,139.078,315.254z"/>
			<path style="fill:#688B7E;" d="M109.744,166.448l-15.65,3.676c-5.18,1.217-10.503-0.893-13.122-5.2l-8.799-14.469
				c-1.948-3.203-0.02-7.363,3.832-8.268l37.497-8.807c3.852-0.905,7.431,1.961,7.112,5.697l-1.437,16.873
				C118.751,160.973,114.924,165.231,109.744,166.448z"/>
			
				<line style="fill:none;stroke:#202020;stroke-linecap:round;stroke-linejoin:round;stroke-miterlimit:10;" x1="111.52" y1="144.582" x2="111.366" y2="159.966"/>
			<g>
				<path style="fill:#B54E34;" d="M113.586,137.326l-35.527,8.345c-1.932,0.454-3.943-0.341-5.042-1.994L38.726,92.12
					c-6.547-27.876,79.693-48.132,86.24-20.256l-7.753,61.431C116.964,135.265,115.518,136.872,113.586,137.326z"/>
				
					<line style="fill:none;stroke:#E8A278;stroke-linecap:round;stroke-linejoin:round;stroke-miterlimit:10;" x1="54.624" y1="69.392" x2="79.013" y2="119.166"/>
				
					<line style="fill:none;stroke:#E8A278;stroke-linecap:round;stroke-linejoin:round;stroke-miterlimit:10;" x1="102.299" y1="139.977" x2="94.415" y2="87.797"/>
				
					<line style="fill:none;stroke:#E8A278;stroke-linecap:round;stroke-linejoin:round;stroke-miterlimit:10;" x1="100.614" y1="58.59" x2="106.352" y2="104.481"/>
				
					<line style="fill:none;stroke:#E8A278;stroke-linecap:round;stroke-linejoin:round;stroke-miterlimit:10;" x1="73.324" y1="76.604" x2="83.441" y2="101.982"/>
				<path style="fill:none;stroke:#202020;stroke-linecap:round;stroke-linejoin:round;stroke-miterlimit:10;" d="M124.965,71.865
					l-7.753,61.431c-0.248,1.969-1.695,3.576-3.627,4.03l-35.527,8.345"/>
			</g>
		</g>
		<g>
			<path style="fill:#202020;" d="M302.993,447.854l-27.385,5.242c-5.027,0.962-9.883-2.333-10.845-7.361l-16.505-86.229
				l45.591-8.726l16.505,86.229C311.316,442.036,308.021,446.892,302.993,447.854z"/>
			
				<rect x="250.51" y="344.077" transform="matrix(0.9822 -0.188 0.188 0.9822 -60.9201 56.9938)" style="fill:#F4D8C8;" width="38.988" height="11.166"/>
			<polygon style="fill:#B54E34;" points="282.417,341.6 255.492,346.753 243.26,282.849 265.515,253.297 			"/>
			<path style="fill:#CF744E;" d="M258.314,270.605c5.939-8.11,9.117-15.883,7.097-17.362c-2.019-1.479-8.471,3.897-14.41,12.007
				c-5.939,8.11-9.76,16.121-7.741,17.6C245.28,284.328,252.375,278.715,258.314,270.605z"/>
			
				<line style="fill:none;stroke:#F4D8C8;stroke-linecap:round;stroke-linejoin:round;stroke-miterlimit:10;" x1="284.516" y1="352.566" x2="301.409" y2="440.822"/>
			
				<line style="fill:none;stroke:#202020;stroke-linecap:round;stroke-linejoin:round;stroke-miterlimit:10;" x1="265.515" y1="253.297" x2="282.417" y2="341.6"/>
		</g>
	</g>
	<g>
		<g>
			<g>
				
					<ellipse transform="matrix(0.7071 -0.7071 0.7071 0.7071 -180.0287 382.6451)" style="fill:#202020;" cx="371.879" cy="408.636" rx="50.417" ry="50.417"/>
				
					<ellipse transform="matrix(0.9989 -0.0479 0.0479 0.9989 -19.1542 18.2895)" style="fill:#F4D8C8;" cx="371.879" cy="408.636" rx="44.703" ry="44.703"/>
				
					<ellipse transform="matrix(0.0148 -0.9999 0.9999 0.0148 -42.2256 774.4166)" style="fill:#B54E34;" cx="371.879" cy="408.636" rx="40.691" ry="40.691"/>
				
					<ellipse transform="matrix(0.9999 -0.0143 0.0143 0.9999 -5.8661 5.4042)" style="fill:#CF744E;" cx="374.309" cy="412.192" rx="36.385" ry="36.385"/>
				
					<ellipse transform="matrix(0.232 -0.9727 0.9727 0.232 -11.8755 613.1476)" style="fill:#202020;" cx="382.348" cy="314.094" rx="50.417" ry="50.417"/>
				<circle style="fill:#F4D8C8;" cx="382.291" cy="314.607" r="45.219"/>
				<circle style="fill:#688B7E;" cx="382.291" cy="314.607" r="42.503"/>
				
					<ellipse transform="matrix(0.7071 -0.7071 0.7071 0.7071 -111.9881 362.9013)" style="fill:#EEFFF8;" cx="382.067" cy="316.632" rx="38.4" ry="38.4"/>
				<path style="fill:#FFFFFF;" d="M400.65,283.016l-32.398,69.452c-6.866-2.639-12.71-7.168-16.976-12.889l18.865-59.457
					c5.051-1.654,10.526-2.279,16.152-1.656C391.495,279.042,396.338,280.632,400.65,283.016z"/>
				<path style="fill:#FFFFFF;" d="M416.832,300.307l-32.654,54.671c-2.08,0.113-4.198,0.056-6.337-0.181
					c-2.461-0.272-4.84-0.771-7.121-1.473l38.269-64.077C412.226,292.436,414.887,296.181,416.832,300.307z"/>
			</g>
			<g>
				
					<ellipse transform="matrix(0.1101 -0.9939 0.9939 0.1101 -42.0909 792.2869)" style="fill:#CF744E;" cx="421.385" cy="419.648" rx="39.53" ry="38.012"/>
				
					<ellipse transform="matrix(0.1803 -0.9836 0.9836 0.1803 -65.734 757.3659)" style="fill:#E8A278;" cx="421.554" cy="418.123" rx="38.013" ry="38.012"/>
				
					<ellipse transform="matrix(0.3986 -0.9171 0.9171 0.3986 -129.9566 638.0581)" style="fill:none;stroke:#F4D8C8;stroke-linecap:round;stroke-linejoin:round;stroke-miterlimit:10;" cx="421.554" cy="418.124" rx="32.34" ry="32.341"/>
				<path style="fill:none;stroke:#202020;stroke-linecap:round;stroke-linejoin:round;stroke-miterlimit:10;" d="M442.707,452.175
					c-17.392,12.389-41.038,7.869-52.814-10.095c-11.776-17.964-7.223-42.57,10.169-54.959"/>
			</g>
		</g>
		<g>
			<path style="fill:#506C70;" d="M444.746,189.958l-22.797,6.81l37.299,124.86c1.881,6.295,5.249,10.848,9.104,9.696l0,0
				c6.295-1.881,9.175-8.299,7.294-14.595L444.746,189.958z"/>
			
				<line style="fill:none;stroke:#202020;stroke-linecap:round;stroke-linejoin:round;stroke-miterlimit:10;" x1="475.646" y1="316.73" x2="444.746" y2="189.958"/>
			<path style="fill:#688B7E;" d="M433.347,193.363l-11.399,3.405l39.001,130.56c0.94,3.148,4.254,4.937,7.402,3.997l0,0
				c3.148-0.94,4.937-4.254,3.997-7.402L433.347,193.363z"/>
			<path style="fill:none;stroke:#202020;stroke-linecap:round;stroke-linejoin:round;stroke-miterlimit:10;" d="M421.948,196.768
				l39.001,130.56c0.94,3.148,4.254,4.937,7.402,3.997l0,0c3.148-0.94,4.937-4.254,3.997-7.402"/>
			
				<ellipse transform="matrix(0.9582 -0.2862 0.2862 0.9582 -23.2785 123.0964)" style="fill:#506C70;" cx="409.431" cy="141.176" rx="39.957" ry="68.809"/>
			<path style="fill:none;stroke:#202020;stroke-linecap:round;stroke-linejoin:round;stroke-miterlimit:10;" d="M389.736,75.245
				c21.144-6.316,47.103,18.081,57.98,54.494"/>
			
				<ellipse transform="matrix(0.9582 -0.2862 0.2862 0.9582 -24.6099 120.2343)" style="fill:#688B7E;" cx="398.975" cy="144.299" rx="39.957" ry="68.809"/>
			<path style="fill:none;stroke:#202020;stroke-linecap:round;stroke-linejoin:round;stroke-miterlimit:10;" d="M379.28,78.369
				c21.144-6.316,47.103,18.081,57.98,54.494c10.877,36.412,2.554,71.051-18.59,77.367"/>
			
				<ellipse transform="matrix(0.9582 -0.2862 0.2862 0.9582 -25.6321 118.0372)" style="fill:#E8A278;" cx="390.948" cy="146.697" rx="41.487" ry="64.904"/>
			<path style="fill:#F4D8C8;" d="M415.716,139.298l-5.72,0.157c-10.424-33.579-31.629-56.737-47.759-51.919
				c-16.357,4.886-21.299,36.69-11.039,71.035c10.26,34.346,31.837,58.227,48.194,53.341c9.707-2.9,15.391-15.282,16.266-32.048
				l5.617-1.678l-5.534-0.391c0.297-10.542-1.243-22.667-4.807-35.188L415.716,139.298z"/>
			<path style="fill:none;stroke:#202020;stroke-linecap:round;stroke-linejoin:round;stroke-miterlimit:10;" d="M362.237,87.536
				c-16.357,4.886-21.299,36.69-11.039,71.035"/>
			
				<line style="fill:none;stroke:#F4D8C8;stroke-linecap:round;stroke-linejoin:round;stroke-miterlimit:10;" x1="414.197" y1="191.162" x2="432.783" y2="180.048"/>
			
				<line style="fill:none;stroke:#F4D8C8;stroke-linecap:round;stroke-linejoin:round;stroke-miterlimit:10;" x1="414.227" y1="157.231" x2="429.515" y2="152.664"/>
			
				<line style="fill:none;stroke:#F4D8C8;stroke-linecap:round;stroke-linejoin:round;stroke-miterlimit:10;" x1="398.257" y1="112.735" x2="419.892" y2="110.833"/>
			
				<line style="fill:none;stroke:#F4D8C8;stroke-linecap:round;stroke-linejoin:round;stroke-miterlimit:10;" x1="401.006" y1="117.624" x2="413.557" y2="111.39"/>
			
				<line style="fill:none;stroke:#F4D8C8;stroke-linecap:round;stroke-linejoin:round;stroke-miterlimit:10;" x1="380.51" y1="92.115" x2="404.284" y2="92.966"/>
			<path style="fill:none;stroke:#202020;stroke-linecap:round;stroke-linejoin:round;stroke-miterlimit:10;" d="M372.371,84.509
				c21.954-6.558,48.068,15.968,58.328,50.314c10.26,34.346,0.78,67.505-21.174,74.063"/>
		</g>
		<g>
			<rect x="117.586" y="452.759" style="fill:#506C70;" width="110.751" height="14.55"/>
			<rect x="115.358" y="438.21" style="fill:#688B7E;" width="115.207" height="14.55"/>
			<polygon style="fill:#688B7E;" points="115.967,359.136 229.956,359.136 217.383,438.21 128.515,438.21 			"/>
			
				<line style="fill:none;stroke:#202020;stroke-linecap:round;stroke-linejoin:round;stroke-miterlimit:10;" x1="115.967" y1="359.136" x2="229.956" y2="359.136"/>
			<polygon style="fill:#506C70;" points="120.257,362.829 225.666,362.829 214.04,438.21 131.86,438.21 			"/>
			<polyline style="fill:none;stroke:#202020;stroke-linecap:round;stroke-linejoin:round;stroke-miterlimit:10;" points="
				131.86,438.21 120.257,362.829 225.666,362.829 			"/>
			<polygon style="fill:#EEFFF8;" points="126.641,370.238 219.282,370.238 209.064,438.21 136.839,438.21 			"/>
			<polygon style="fill:#FFFFFF;" points="188.525,370.239 136.874,438.211 136.838,438.211 132.882,411.835 173.689,370.239 			"/>
			<polygon style="fill:#FFFFFF;" points="219.283,370.239 218.498,375.464 170.816,438.211 143.658,438.211 199.253,370.239 			"/>
			<polyline style="fill:none;stroke:#202020;stroke-linecap:round;stroke-linejoin:round;stroke-miterlimit:10;" points="
				230.565,438.21 230.565,452.759 115.358,452.759 			"/>
			
				<line style="fill:none;stroke:#688B7E;stroke-linecap:round;stroke-linejoin:round;stroke-miterlimit:10;" x1="117.586" y1="461.608" x2="228.337" y2="461.608"/>
			
				<line style="fill:none;stroke:#202020;stroke-linecap:round;stroke-linejoin:round;stroke-miterlimit:10;" x1="126.641" y1="370.238" x2="219.282" y2="370.238"/>
			
				<line style="fill:none;stroke:#202020;stroke-linecap:round;stroke-linejoin:round;stroke-miterlimit:10;" x1="125.528" y1="438.21" x2="220.395" y2="438.21"/>
		</g>
	</g>
	<g>
		<g>
			<path style="fill:#CF744E;" d="M19.318,343.544c2.982-23.365,26.464-72.016,51.774-68.786c25.309,3.23,35.82,56.22,32.838,79.585
				c-2.982,23.365-24.34,39.888-47.705,36.906C32.859,388.267,16.336,366.909,19.318,343.544z"/>
			<path style="fill:none;stroke:#202020;stroke-linecap:round;stroke-linejoin:round;stroke-miterlimit:10;" d="M71.091,274.758
				c25.309,3.23,35.82,56.22,32.838,79.585c-2.982,23.365-24.34,39.888-47.705,36.906c-23.365-2.982-39.888-24.34-36.906-47.705"/>
			<path style="fill:#E8A278;" d="M23.931,333.62c2.369-18.563,21.026-57.216,41.134-54.65
				c20.108,2.566,28.458,44.666,26.089,63.229c-2.369,18.563-19.338,31.691-37.901,29.322
				C34.689,369.152,21.562,352.183,23.931,333.62z"/>
			<path style="fill:none;stroke:#202020;stroke-linecap:round;stroke-linejoin:round;stroke-miterlimit:10;" d="M29.206,344.806
				c2.982-23.365,22.492-72.523,41.885-70.048c19.394,2.475,25.931,54.958,22.949,78.323c-2.982,23.365-19.913,40.453-37.816,38.168
				C38.32,388.964,26.224,368.171,29.206,344.806z"/>
			<path style="fill:none;stroke:#202020;stroke-linecap:round;stroke-linejoin:round;stroke-miterlimit:10;" d="M49.072,347.342
				c2.982-23.365,14.51-73.542,22.019-72.583c7.509,0.958,6.065,52.422,3.083,75.787c-2.982,23.365-11.019,41.588-17.951,40.704
				C49.292,390.364,46.09,370.706,49.072,347.342z"/>
		</g>
		<g>
			<polygon style="fill:#E8A278;" points="224.914,248.831 164.562,243.562 166.367,62.873 258.775,70.939 			"/>
			<polygon style="fill:#F4D8C8;" points="208.108,247.363 164.562,243.562 166.367,62.873 252.479,70.39 			"/>
			<polygon style="fill:#CF744E;" points="206.161,211.96 164.914,208.36 166.016,98.076 229.61,103.627 			"/>
			<polyline style="fill:none;stroke:#202020;stroke-linecap:round;stroke-linejoin:round;stroke-miterlimit:10;" points="
				229.61,103.627 206.161,211.96 164.914,208.36 			"/>
			
				<rect x="167.206" y="43.615" transform="matrix(0.9962 0.087 -0.087 0.9962 5.6164 -18.3637)" style="fill:#E8A278;" width="92.759" height="23.336"/>
			
				<rect x="163.074" y="246.137" transform="matrix(0.9962 0.087 -0.087 0.9962 23.5099 -15.8225)" style="fill:#688B7E;" width="60.582" height="31.595"/>
			<polyline style="fill:none;stroke:#202020;stroke-linecap:round;stroke-linejoin:round;stroke-miterlimit:10;" points="
				207.343,256.128 205.361,278.839 161.814,275.038 			"/>
			
				<line style="fill:none;stroke:#202020;stroke-linecap:round;stroke-linejoin:round;stroke-miterlimit:10;" x1="164.562" y1="243.562" x2="166.367" y2="62.873"/>
			<polyline style="fill:none;stroke:#202020;stroke-linecap:round;stroke-linejoin:round;stroke-miterlimit:10;" points="
				166.367,62.873 258.775,70.939 260.804,47.692 			"/>
			
				<line style="fill:none;stroke:#202020;stroke-linecap:round;stroke-linejoin:round;stroke-miterlimit:10;" x1="175.327" y1="40.231" x2="173.653" y2="59.414"/>
			
				<line style="fill:none;stroke:#202020;stroke-linecap:round;stroke-linejoin:round;stroke-miterlimit:10;" x1="186.639" y1="41.218" x2="184.964" y2="60.401"/>
			
				<line style="fill:none;stroke:#202020;stroke-linecap:round;stroke-linejoin:round;stroke-miterlimit:10;" x1="197.95" y1="42.206" x2="196.276" y2="61.388"/>
			
				<line style="fill:none;stroke:#202020;stroke-linecap:round;stroke-linejoin:round;stroke-miterlimit:10;" x1="209.262" y1="43.193" x2="207.587" y2="62.376"/>
			
				<line style="fill:none;stroke:#202020;stroke-linecap:round;stroke-linejoin:round;stroke-miterlimit:10;" x1="220.573" y1="44.18" x2="218.899" y2="63.363"/>
			
				<line style="fill:none;stroke:#202020;stroke-linecap:round;stroke-linejoin:round;stroke-miterlimit:10;" x1="231.885" y1="45.168" x2="230.211" y2="64.35"/>
			
				<line style="fill:none;stroke:#202020;stroke-linecap:round;stroke-linejoin:round;stroke-miterlimit:10;" x1="243.197" y1="46.155" x2="241.522" y2="65.338"/>
			
				<line style="fill:none;stroke:#202020;stroke-linecap:round;stroke-linejoin:round;stroke-miterlimit:10;" x1="254.508" y1="47.143" x2="252.834" y2="66.325"/>
			
				<line style="fill:none;stroke:#202020;stroke-linecap:round;stroke-linejoin:round;stroke-miterlimit:10;" x1="229.1" y1="226.842" x2="254.165" y2="95.16"/>
		</g>
		<g>
			
				<ellipse transform="matrix(0.1211 -0.9926 0.9926 0.1211 50.2712 490.1078)" style="fill:#506C70;" cx="301.91" cy="216.665" rx="50.43" ry="17.949"/>
			<path style="fill:none;stroke:#202020;stroke-linecap:round;stroke-linejoin:round;stroke-miterlimit:10;" d="M295.801,266.724
				c9.84,1.201,20.552-20.238,23.926-47.885c3.374-27.647-1.869-51.032-11.709-52.233"/>
			
				<ellipse transform="matrix(0.1211 -0.9926 0.9926 0.1211 46.5768 484.7454)" style="fill:#688B7E;" cx="297.034" cy="216.07" rx="36.631" ry="13.038"/>
			<path style="fill:#202020;" d="M325.002,39.108l-2.809-0.343l-15.644,128.204c-0.475,3.894,2.335,4.237,2.81,0.343
				L325.002,39.108z"/>
			<path style="fill:#202020;" d="M328.683,90.11c1.926-15.785,1.76-55.995-4.406-56.748c-6.166-0.752-15.997,38.238-17.923,54.023
				c-1.926,15.785,1.511,29.191,7.677,29.944C320.197,118.082,326.757,105.895,328.683,90.11z"/>
			
				<line style="fill:none;stroke:#202020;stroke-linecap:round;stroke-linejoin:round;stroke-miterlimit:10;" x1="303.214" y1="86.488" x2="315.181" y2="107.905"/>
			
				<line style="fill:none;stroke:#202020;stroke-linecap:round;stroke-linejoin:round;stroke-miterlimit:10;" x1="305.134" y1="70.753" x2="317.101" y2="92.17"/>
			
				<line style="fill:none;stroke:#202020;stroke-linecap:round;stroke-linejoin:round;stroke-miterlimit:10;" x1="335.456" y1="68.581" x2="318.69" y2="86.492"/>
			
				<line style="fill:none;stroke:#202020;stroke-linecap:round;stroke-linejoin:round;stroke-miterlimit:10;" x1="331.205" y1="95.087" x2="315.608" y2="111.749"/>
			
				<line style="fill:none;stroke:#202020;stroke-linecap:round;stroke-linejoin:round;stroke-miterlimit:10;" x1="332.064" y1="52.197" x2="320.61" y2="70.757"/>
			
				<line style="fill:none;stroke:#202020;stroke-linecap:round;stroke-linejoin:round;stroke-miterlimit:10;" x1="310.257" y1="55.408" x2="319.022" y2="76.435"/>
			
				<line style="fill:none;stroke:#F4D8C8;stroke-linecap:round;stroke-linejoin:round;stroke-miterlimit:10;" x1="315.925" y1="101.809" x2="310.624" y2="85.508"/>
			
				<line style="fill:none;stroke:#F4D8C8;stroke-linecap:round;stroke-linejoin:round;stroke-miterlimit:10;" x1="319.045" y1="76.241" x2="314.617" y2="66.1"/>
			
				<line style="fill:none;stroke:#F4D8C8;stroke-linecap:round;stroke-linejoin:round;stroke-miterlimit:10;" x1="317.147" y1="91.798" x2="323.883" y2="83.019"/>
			
				<line style="fill:none;stroke:#F4D8C8;stroke-linecap:round;stroke-linejoin:round;stroke-miterlimit:10;" x1="314.604" y1="112.636" x2="323.094" y2="106.078"/>
			<path style="fill:none;stroke:#202020;stroke-linecap:round;stroke-linejoin:round;stroke-miterlimit:10;" d="M284.093,214.491
				c-0.446,3.653,7.17,7.587,17.01,8.788c9.84,1.201,18.178-0.787,18.624-4.44"/>
		</g>
	</g>
</g>
</svg>
